<mxfile host="app.diagrams.net" agent="Mozilla/5.0 (Windows NT 10.0; Win64; x64) AppleWebKit/537.36 (KHTML, like Gecko) Chrome/134.0.0.0 Safari/537.36" version="26.0.16">
  <diagram name="PÃ¡gina-1" id="FYHkIULbLmziJYAY0jOf">
    <mxGraphModel dx="2206" dy="1197" grid="1" gridSize="10" guides="1" tooltips="1" connect="1" arrows="1" fold="1" page="1" pageScale="1" pageWidth="827" pageHeight="1169" math="0" shadow="0">
      <root>
        <mxCell id="0" />
        <mxCell id="1" parent="0" />
        <mxCell id="2v6A8b7P8TfMOV1MHthp-133" style="edgeStyle=orthogonalEdgeStyle;rounded=0;orthogonalLoop=1;jettySize=auto;html=1;exitX=0.25;exitY=0.1;exitDx=0;exitDy=0;exitPerimeter=0;entryX=1;entryY=0.5;entryDx=0;entryDy=0;fillColor=#e1d5e7;strokeColor=#9673a6;" edge="1" parent="1" source="2v6A8b7P8TfMOV1MHthp-2" target="2v6A8b7P8TfMOV1MHthp-45">
          <mxGeometry relative="1" as="geometry">
            <Array as="points">
              <mxPoint x="720" y="380" />
              <mxPoint x="720" y="190" />
            </Array>
          </mxGeometry>
        </mxCell>
        <mxCell id="2v6A8b7P8TfMOV1MHthp-135" style="edgeStyle=orthogonalEdgeStyle;rounded=0;orthogonalLoop=1;jettySize=auto;html=1;exitX=0.25;exitY=0.1;exitDx=0;exitDy=0;exitPerimeter=0;entryX=1;entryY=0.5;entryDx=0;entryDy=0;fillColor=#e1d5e7;strokeColor=#9673a6;" edge="1" parent="1" source="2v6A8b7P8TfMOV1MHthp-2" target="2v6A8b7P8TfMOV1MHthp-53">
          <mxGeometry relative="1" as="geometry">
            <Array as="points">
              <mxPoint x="720" y="380" />
              <mxPoint x="720" y="350" />
            </Array>
          </mxGeometry>
        </mxCell>
        <mxCell id="2v6A8b7P8TfMOV1MHthp-139" style="edgeStyle=orthogonalEdgeStyle;rounded=0;orthogonalLoop=1;jettySize=auto;html=1;exitX=0;exitY=1;exitDx=0;exitDy=0;exitPerimeter=0;entryX=1;entryY=0.5;entryDx=0;entryDy=0;fillColor=#e1d5e7;strokeColor=#9673a6;" edge="1" parent="1" source="2v6A8b7P8TfMOV1MHthp-2" target="2v6A8b7P8TfMOV1MHthp-54">
          <mxGeometry relative="1" as="geometry">
            <Array as="points">
              <mxPoint x="720" y="560" />
              <mxPoint x="720" y="650" />
            </Array>
          </mxGeometry>
        </mxCell>
        <mxCell id="2v6A8b7P8TfMOV1MHthp-141" style="edgeStyle=orthogonalEdgeStyle;rounded=0;orthogonalLoop=1;jettySize=auto;html=1;exitX=0;exitY=1;exitDx=0;exitDy=0;exitPerimeter=0;entryX=1;entryY=0.5;entryDx=0;entryDy=0;fillColor=#e1d5e7;strokeColor=#9673a6;" edge="1" parent="1" source="2v6A8b7P8TfMOV1MHthp-2" target="2v6A8b7P8TfMOV1MHthp-109">
          <mxGeometry relative="1" as="geometry">
            <Array as="points">
              <mxPoint x="720" y="560" />
              <mxPoint x="720" y="890" />
            </Array>
          </mxGeometry>
        </mxCell>
        <mxCell id="2v6A8b7P8TfMOV1MHthp-142" style="edgeStyle=orthogonalEdgeStyle;rounded=0;orthogonalLoop=1;jettySize=auto;html=1;exitX=0;exitY=1;exitDx=0;exitDy=0;exitPerimeter=0;entryX=1;entryY=0.5;entryDx=0;entryDy=0;fillColor=#e1d5e7;strokeColor=#9673a6;" edge="1" parent="1" source="2v6A8b7P8TfMOV1MHthp-2" target="2v6A8b7P8TfMOV1MHthp-110">
          <mxGeometry relative="1" as="geometry">
            <Array as="points">
              <mxPoint x="720" y="560" />
              <mxPoint x="720" y="970" />
            </Array>
          </mxGeometry>
        </mxCell>
        <mxCell id="2v6A8b7P8TfMOV1MHthp-2" value="SISTEMA" style="shape=umlActor;verticalLabelPosition=bottom;verticalAlign=top;html=1;outlineConnect=0;" vertex="1" parent="1">
          <mxGeometry x="747" y="360" width="80" height="200" as="geometry" />
        </mxCell>
        <mxCell id="2v6A8b7P8TfMOV1MHthp-20" value="AGENDAMENTO DE HORARIO" style="text;html=1;align=center;verticalAlign=middle;whiteSpace=wrap;rounded=0;fillColor=#f5f5f5;fontColor=#333333;strokeColor=#666666;opacity=0;" vertex="1" parent="1">
          <mxGeometry x="360" width="118.75" height="60" as="geometry" />
        </mxCell>
        <mxCell id="2v6A8b7P8TfMOV1MHthp-127" style="edgeStyle=orthogonalEdgeStyle;rounded=0;orthogonalLoop=1;jettySize=auto;html=1;entryX=0.5;entryY=0;entryDx=0;entryDy=0;fillColor=#d5e8d4;strokeColor=#82b366;" edge="1" parent="1" source="2v6A8b7P8TfMOV1MHthp-45" target="2v6A8b7P8TfMOV1MHthp-49">
          <mxGeometry relative="1" as="geometry" />
        </mxCell>
        <mxCell id="2v6A8b7P8TfMOV1MHthp-45" value="EXIBIR LISTA DE SERVICOS DISPONIVEIS" style="rounded=0;whiteSpace=wrap;html=1;fillColor=#ffe6cc;strokeColor=#d79b00;" vertex="1" parent="1">
          <mxGeometry x="361.88" y="160" width="120" height="60" as="geometry" />
        </mxCell>
        <mxCell id="2v6A8b7P8TfMOV1MHthp-128" style="edgeStyle=orthogonalEdgeStyle;rounded=0;orthogonalLoop=1;jettySize=auto;html=1;entryX=0.5;entryY=0;entryDx=0;entryDy=0;fillColor=#d5e8d4;strokeColor=#82b366;" edge="1" parent="1" source="2v6A8b7P8TfMOV1MHthp-46" target="2v6A8b7P8TfMOV1MHthp-45">
          <mxGeometry relative="1" as="geometry" />
        </mxCell>
        <mxCell id="2v6A8b7P8TfMOV1MHthp-46" value="ACESSAR INTERFACE" style="strokeWidth=2;html=1;shape=mxgraph.flowchart.start_1;whiteSpace=wrap;movable=1;resizable=1;rotatable=1;deletable=1;editable=1;locked=0;connectable=1;fillColor=#fff2cc;strokeColor=#d6b656;" vertex="1" parent="1">
          <mxGeometry x="363.13" y="80" width="117.5" height="60" as="geometry" />
        </mxCell>
        <mxCell id="2v6A8b7P8TfMOV1MHthp-48" value="FIM" style="strokeWidth=2;html=1;shape=mxgraph.flowchart.start_1;whiteSpace=wrap;fillColor=#fff2cc;strokeColor=#d6b656;" vertex="1" parent="1">
          <mxGeometry x="361.25" y="1020" width="120" height="60" as="geometry" />
        </mxCell>
        <mxCell id="2v6A8b7P8TfMOV1MHthp-126" style="edgeStyle=orthogonalEdgeStyle;rounded=0;orthogonalLoop=1;jettySize=auto;html=1;entryX=0.5;entryY=0;entryDx=0;entryDy=0;fillColor=#d5e8d4;strokeColor=#82b366;" edge="1" parent="1" source="2v6A8b7P8TfMOV1MHthp-49" target="2v6A8b7P8TfMOV1MHthp-53">
          <mxGeometry relative="1" as="geometry" />
        </mxCell>
        <mxCell id="2v6A8b7P8TfMOV1MHthp-49" value="SELECIONAR UM SERVICO" style="rounded=0;whiteSpace=wrap;html=1;fillColor=#ffe6cc;strokeColor=#d79b00;" vertex="1" parent="1">
          <mxGeometry x="361.88" y="240" width="118.75" height="60" as="geometry" />
        </mxCell>
        <mxCell id="2v6A8b7P8TfMOV1MHthp-117" style="edgeStyle=orthogonalEdgeStyle;rounded=0;orthogonalLoop=1;jettySize=auto;html=1;entryX=0.5;entryY=0;entryDx=0;entryDy=0;fillColor=#d5e8d4;strokeColor=#82b366;" edge="1" parent="1" source="2v6A8b7P8TfMOV1MHthp-52" target="2v6A8b7P8TfMOV1MHthp-108">
          <mxGeometry relative="1" as="geometry" />
        </mxCell>
        <mxCell id="2v6A8b7P8TfMOV1MHthp-52" value="INSERIR DADOS PESSOAIS" style="rounded=0;whiteSpace=wrap;html=1;fillColor=#ffe6cc;strokeColor=#d79b00;" vertex="1" parent="1">
          <mxGeometry x="361.25" y="700" width="120" height="60" as="geometry" />
        </mxCell>
        <mxCell id="2v6A8b7P8TfMOV1MHthp-125" style="edgeStyle=orthogonalEdgeStyle;rounded=0;orthogonalLoop=1;jettySize=auto;html=1;entryX=0.5;entryY=0;entryDx=0;entryDy=0;fillColor=#d5e8d4;strokeColor=#82b366;" edge="1" parent="1" source="2v6A8b7P8TfMOV1MHthp-53" target="2v6A8b7P8TfMOV1MHthp-104">
          <mxGeometry relative="1" as="geometry" />
        </mxCell>
        <mxCell id="2v6A8b7P8TfMOV1MHthp-53" value="EXIBIR LISTA DE HORARIOS DISPONIVEIS" style="rounded=0;whiteSpace=wrap;html=1;fillColor=#ffe6cc;strokeColor=#d79b00;" vertex="1" parent="1">
          <mxGeometry x="361.25" y="320" width="120" height="60" as="geometry" />
        </mxCell>
        <mxCell id="2v6A8b7P8TfMOV1MHthp-113" style="edgeStyle=orthogonalEdgeStyle;rounded=0;orthogonalLoop=1;jettySize=auto;html=1;entryX=0.5;entryY=0;entryDx=0;entryDy=0;fillColor=#d5e8d4;strokeColor=#82b366;" edge="1" parent="1" source="2v6A8b7P8TfMOV1MHthp-54" target="2v6A8b7P8TfMOV1MHthp-52">
          <mxGeometry relative="1" as="geometry" />
        </mxCell>
        <mxCell id="2v6A8b7P8TfMOV1MHthp-54" value="EXIBIR CAMPOS PARA POR DADOS PESSOAIS" style="rounded=0;whiteSpace=wrap;html=1;fillColor=#ffe6cc;strokeColor=#d79b00;" vertex="1" parent="1">
          <mxGeometry x="361.25" y="620" width="120" height="60" as="geometry" />
        </mxCell>
        <mxCell id="2v6A8b7P8TfMOV1MHthp-106" style="edgeStyle=orthogonalEdgeStyle;rounded=0;orthogonalLoop=1;jettySize=auto;html=1;entryX=0;entryY=0.5;entryDx=0;entryDy=0;fillColor=#f8cecc;strokeColor=#b85450;" edge="1" parent="1" source="2v6A8b7P8TfMOV1MHthp-56" target="2v6A8b7P8TfMOV1MHthp-58">
          <mxGeometry relative="1" as="geometry" />
        </mxCell>
        <mxCell id="2v6A8b7P8TfMOV1MHthp-107" style="edgeStyle=orthogonalEdgeStyle;rounded=0;orthogonalLoop=1;jettySize=auto;html=1;entryX=1;entryY=0.5;entryDx=0;entryDy=0;fillColor=#d5e8d4;strokeColor=#82b366;" edge="1" parent="1" source="2v6A8b7P8TfMOV1MHthp-56" target="2v6A8b7P8TfMOV1MHthp-59">
          <mxGeometry relative="1" as="geometry" />
        </mxCell>
        <mxCell id="2v6A8b7P8TfMOV1MHthp-56" value="VERIFICAR SE O HORARIO ESTA DISPONIVEL" style="strokeWidth=2;html=1;shape=mxgraph.flowchart.decision;whiteSpace=wrap;fillColor=#dae8fc;strokeColor=#6c8ebf;" vertex="1" parent="1">
          <mxGeometry x="361.25" y="480" width="120" height="120" as="geometry" />
        </mxCell>
        <mxCell id="2v6A8b7P8TfMOV1MHthp-136" style="edgeStyle=orthogonalEdgeStyle;rounded=0;orthogonalLoop=1;jettySize=auto;html=1;entryX=1;entryY=1;entryDx=0;entryDy=0;fillColor=#f8cecc;strokeColor=#b85450;" edge="1" parent="1" source="2v6A8b7P8TfMOV1MHthp-58" target="2v6A8b7P8TfMOV1MHthp-53">
          <mxGeometry relative="1" as="geometry">
            <Array as="points">
              <mxPoint x="560" y="380" />
            </Array>
          </mxGeometry>
        </mxCell>
        <mxCell id="2v6A8b7P8TfMOV1MHthp-58" value="INDISPONIVEL" style="rounded=0;whiteSpace=wrap;html=1;fillColor=#f8cecc;strokeColor=#b85450;" vertex="1" parent="1">
          <mxGeometry x="490" y="510" width="120" height="60" as="geometry" />
        </mxCell>
        <mxCell id="2v6A8b7P8TfMOV1MHthp-112" style="edgeStyle=orthogonalEdgeStyle;rounded=0;orthogonalLoop=1;jettySize=auto;html=1;entryX=0;entryY=0.5;entryDx=0;entryDy=0;fillColor=#d5e8d4;strokeColor=#82b366;" edge="1" parent="1" source="2v6A8b7P8TfMOV1MHthp-59" target="2v6A8b7P8TfMOV1MHthp-54">
          <mxGeometry relative="1" as="geometry">
            <Array as="points">
              <mxPoint x="280" y="650" />
            </Array>
          </mxGeometry>
        </mxCell>
        <mxCell id="2v6A8b7P8TfMOV1MHthp-59" value="DISPONIVEL" style="rounded=0;whiteSpace=wrap;html=1;fillColor=#d5e8d4;strokeColor=#82b366;" vertex="1" parent="1">
          <mxGeometry x="230" y="510" width="120" height="60" as="geometry" />
        </mxCell>
        <mxCell id="2v6A8b7P8TfMOV1MHthp-131" style="rounded=0;orthogonalLoop=1;jettySize=auto;html=1;exitX=0.75;exitY=0.1;exitDx=0;exitDy=0;exitPerimeter=0;entryX=0;entryY=0.5;entryDx=0;entryDy=0;fillColor=#dae8fc;strokeColor=#6c8ebf;" edge="1" parent="1" source="2v6A8b7P8TfMOV1MHthp-73" target="2v6A8b7P8TfMOV1MHthp-49">
          <mxGeometry relative="1" as="geometry" />
        </mxCell>
        <mxCell id="2v6A8b7P8TfMOV1MHthp-132" style="rounded=0;orthogonalLoop=1;jettySize=auto;html=1;exitX=0.75;exitY=0.1;exitDx=0;exitDy=0;exitPerimeter=0;entryX=0;entryY=0.5;entryDx=0;entryDy=0;fillColor=#dae8fc;strokeColor=#6c8ebf;" edge="1" parent="1" source="2v6A8b7P8TfMOV1MHthp-73" target="2v6A8b7P8TfMOV1MHthp-104">
          <mxGeometry relative="1" as="geometry" />
        </mxCell>
        <mxCell id="2v6A8b7P8TfMOV1MHthp-138" style="rounded=0;orthogonalLoop=1;jettySize=auto;html=1;exitX=1;exitY=1;exitDx=0;exitDy=0;exitPerimeter=0;entryX=0;entryY=0.5;entryDx=0;entryDy=0;fillColor=#dae8fc;strokeColor=#6c8ebf;" edge="1" parent="1" source="2v6A8b7P8TfMOV1MHthp-73" target="2v6A8b7P8TfMOV1MHthp-52">
          <mxGeometry relative="1" as="geometry" />
        </mxCell>
        <mxCell id="2v6A8b7P8TfMOV1MHthp-140" style="rounded=0;orthogonalLoop=1;jettySize=auto;html=1;exitX=1;exitY=1;exitDx=0;exitDy=0;exitPerimeter=0;entryX=0;entryY=0.5;entryDx=0;entryDy=0;fillColor=#dae8fc;strokeColor=#6c8ebf;" edge="1" parent="1" source="2v6A8b7P8TfMOV1MHthp-73" target="2v6A8b7P8TfMOV1MHthp-108">
          <mxGeometry relative="1" as="geometry" />
        </mxCell>
        <mxCell id="2v6A8b7P8TfMOV1MHthp-73" value="USUARIO" style="shape=umlActor;verticalLabelPosition=bottom;verticalAlign=top;html=1;outlineConnect=0;" vertex="1" parent="1">
          <mxGeometry y="360" width="80" height="200" as="geometry" />
        </mxCell>
        <mxCell id="2v6A8b7P8TfMOV1MHthp-104" value="SELECIONAR UM HORARIO" style="rounded=0;whiteSpace=wrap;html=1;fillColor=#ffe6cc;strokeColor=#d79b00;" vertex="1" parent="1">
          <mxGeometry x="361.25" y="400" width="120" height="60" as="geometry" />
        </mxCell>
        <mxCell id="2v6A8b7P8TfMOV1MHthp-118" style="edgeStyle=orthogonalEdgeStyle;rounded=0;orthogonalLoop=1;jettySize=auto;html=1;entryX=0.5;entryY=0;entryDx=0;entryDy=0;fillColor=#d5e8d4;strokeColor=#82b366;" edge="1" parent="1" source="2v6A8b7P8TfMOV1MHthp-108" target="2v6A8b7P8TfMOV1MHthp-109">
          <mxGeometry relative="1" as="geometry" />
        </mxCell>
        <mxCell id="2v6A8b7P8TfMOV1MHthp-108" value="CONFIRMAR DADOS" style="rounded=0;whiteSpace=wrap;html=1;fillColor=#ffe6cc;strokeColor=#d79b00;" vertex="1" parent="1">
          <mxGeometry x="361.25" y="780" width="120" height="60" as="geometry" />
        </mxCell>
        <mxCell id="2v6A8b7P8TfMOV1MHthp-120" style="edgeStyle=orthogonalEdgeStyle;rounded=0;orthogonalLoop=1;jettySize=auto;html=1;entryX=0.5;entryY=0;entryDx=0;entryDy=0;fillColor=#d5e8d4;strokeColor=#82b366;" edge="1" parent="1" source="2v6A8b7P8TfMOV1MHthp-109" target="2v6A8b7P8TfMOV1MHthp-110">
          <mxGeometry relative="1" as="geometry" />
        </mxCell>
        <mxCell id="2v6A8b7P8TfMOV1MHthp-109" value="SALVAR NO BANCO DE DADOS" style="rounded=0;whiteSpace=wrap;html=1;fillColor=#ffe6cc;strokeColor=#d79b00;" vertex="1" parent="1">
          <mxGeometry x="361.25" y="860" width="120" height="60" as="geometry" />
        </mxCell>
        <mxCell id="2v6A8b7P8TfMOV1MHthp-110" value="EXIBIR UMA MENSAGEM DE CONFIRMACAO COM OS DETALHES" style="rounded=0;whiteSpace=wrap;html=1;fillColor=#ffe6cc;strokeColor=#d79b00;" vertex="1" parent="1">
          <mxGeometry x="361.25" y="940" width="120" height="60" as="geometry" />
        </mxCell>
        <mxCell id="2v6A8b7P8TfMOV1MHthp-121" style="edgeStyle=orthogonalEdgeStyle;rounded=0;orthogonalLoop=1;jettySize=auto;html=1;entryX=0.5;entryY=0;entryDx=0;entryDy=0;entryPerimeter=0;fillColor=#d5e8d4;strokeColor=#82b366;" edge="1" parent="1" source="2v6A8b7P8TfMOV1MHthp-110" target="2v6A8b7P8TfMOV1MHthp-48">
          <mxGeometry relative="1" as="geometry" />
        </mxCell>
        <mxCell id="2v6A8b7P8TfMOV1MHthp-123" style="edgeStyle=orthogonalEdgeStyle;rounded=0;orthogonalLoop=1;jettySize=auto;html=1;entryX=0.5;entryY=-0.034;entryDx=0;entryDy=0;entryPerimeter=0;fillColor=#d5e8d4;strokeColor=#82b366;" edge="1" parent="1" source="2v6A8b7P8TfMOV1MHthp-104" target="2v6A8b7P8TfMOV1MHthp-56">
          <mxGeometry relative="1" as="geometry" />
        </mxCell>
        <mxCell id="2v6A8b7P8TfMOV1MHthp-130" style="rounded=0;orthogonalLoop=1;jettySize=auto;html=1;exitX=0.75;exitY=0.1;exitDx=0;exitDy=0;exitPerimeter=0;entryX=0;entryY=0.5;entryDx=0;entryDy=0;entryPerimeter=0;fillColor=#dae8fc;strokeColor=#6c8ebf;" edge="1" parent="1" source="2v6A8b7P8TfMOV1MHthp-73" target="2v6A8b7P8TfMOV1MHthp-46">
          <mxGeometry relative="1" as="geometry" />
        </mxCell>
        <mxCell id="2v6A8b7P8TfMOV1MHthp-137" style="edgeStyle=orthogonalEdgeStyle;rounded=0;orthogonalLoop=1;jettySize=auto;html=1;exitX=0;exitY=0.3333333333333333;exitDx=0;exitDy=0;exitPerimeter=0;entryX=0.5;entryY=0;entryDx=0;entryDy=0;entryPerimeter=0;fillColor=#e1d5e7;strokeColor=#9673a6;" edge="1" parent="1" source="2v6A8b7P8TfMOV1MHthp-2" target="2v6A8b7P8TfMOV1MHthp-56">
          <mxGeometry relative="1" as="geometry">
            <Array as="points">
              <mxPoint x="720" y="427" />
              <mxPoint x="720" y="480" />
            </Array>
          </mxGeometry>
        </mxCell>
      </root>
    </mxGraphModel>
  </diagram>
</mxfile>
